<mxfile host="app.diagrams.net" agent="Mozilla/5.0 (Macintosh; Intel Mac OS X 10_15_7) AppleWebKit/537.36 (KHTML, like Gecko) Chrome/127.0.0.0 Safari/537.36" version="24.7.7">
  <diagram id="C5RBs43oDa-KdzZeNtuy" name="Page-1">
    <mxGraphModel dx="1026" dy="609" grid="1" gridSize="10" guides="1" tooltips="1" connect="1" arrows="1" fold="1" page="1" pageScale="1" pageWidth="827" pageHeight="1169" math="0" shadow="0">
      <root>
        <mxCell id="WIyWlLk6GJQsqaUBKTNV-0" />
        <mxCell id="WIyWlLk6GJQsqaUBKTNV-1" parent="WIyWlLk6GJQsqaUBKTNV-0" />
        <mxCell id="J1MwOUdzkvqNXm9cDx9r-5" value="" style="edgeStyle=orthogonalEdgeStyle;rounded=0;orthogonalLoop=1;jettySize=auto;html=1;" edge="1" parent="WIyWlLk6GJQsqaUBKTNV-1" source="J1MwOUdzkvqNXm9cDx9r-0" target="J1MwOUdzkvqNXm9cDx9r-4">
          <mxGeometry relative="1" as="geometry" />
        </mxCell>
        <mxCell id="J1MwOUdzkvqNXm9cDx9r-0" value="政企缴费能力提升" style="strokeWidth=2;html=1;shape=mxgraph.flowchart.start_1;whiteSpace=wrap;fillColor=#d5e8d4;strokeColor=#82b366;" vertex="1" parent="WIyWlLk6GJQsqaUBKTNV-1">
          <mxGeometry x="210" y="290" width="100" height="60" as="geometry" />
        </mxCell>
        <mxCell id="J1MwOUdzkvqNXm9cDx9r-4" value="政企账单推送&lt;div&gt;账期、金额、账户&lt;/div&gt;" style="whiteSpace=wrap;html=1;strokeWidth=2;fillColor=#d5e8d4;strokeColor=#82b366;" vertex="1" parent="WIyWlLk6GJQsqaUBKTNV-1">
          <mxGeometry x="200" y="170" width="120" height="60" as="geometry" />
        </mxCell>
        <mxCell id="J1MwOUdzkvqNXm9cDx9r-6" value="" style="strokeWidth=2;html=1;shape=mxgraph.flowchart.annotation_2;align=left;labelPosition=right;pointerEvents=1;" vertex="1" parent="WIyWlLk6GJQsqaUBKTNV-1">
          <mxGeometry x="320" y="100" width="50" height="200" as="geometry" />
        </mxCell>
        <mxCell id="J1MwOUdzkvqNXm9cDx9r-10" value="" style="edgeStyle=orthogonalEdgeStyle;rounded=0;orthogonalLoop=1;jettySize=auto;html=1;" edge="1" parent="WIyWlLk6GJQsqaUBKTNV-1" source="J1MwOUdzkvqNXm9cDx9r-7" target="J1MwOUdzkvqNXm9cDx9r-9">
          <mxGeometry relative="1" as="geometry" />
        </mxCell>
        <mxCell id="J1MwOUdzkvqNXm9cDx9r-12" style="edgeStyle=orthogonalEdgeStyle;rounded=0;orthogonalLoop=1;jettySize=auto;html=1;entryX=0;entryY=0.5;entryDx=0;entryDy=0;" edge="1" parent="WIyWlLk6GJQsqaUBKTNV-1" source="J1MwOUdzkvqNXm9cDx9r-7" target="J1MwOUdzkvqNXm9cDx9r-11">
          <mxGeometry relative="1" as="geometry" />
        </mxCell>
        <mxCell id="J1MwOUdzkvqNXm9cDx9r-7" value="缴费、发票二维码" style="whiteSpace=wrap;html=1;align=left;strokeWidth=2;pointerEvents=1;fillColor=#f8cecc;strokeColor=#b85450;" vertex="1" parent="WIyWlLk6GJQsqaUBKTNV-1">
          <mxGeometry x="370" y="70" width="120" height="60" as="geometry" />
        </mxCell>
        <mxCell id="J1MwOUdzkvqNXm9cDx9r-25" value="" style="edgeStyle=orthogonalEdgeStyle;rounded=0;orthogonalLoop=1;jettySize=auto;html=1;" edge="1" parent="WIyWlLk6GJQsqaUBKTNV-1" source="J1MwOUdzkvqNXm9cDx9r-9" target="J1MwOUdzkvqNXm9cDx9r-24">
          <mxGeometry relative="1" as="geometry" />
        </mxCell>
        <mxCell id="J1MwOUdzkvqNXm9cDx9r-9" value="线上自服务缴费" style="whiteSpace=wrap;html=1;align=left;strokeWidth=2;pointerEvents=1;fillColor=#f8cecc;strokeColor=#b85450;" vertex="1" parent="WIyWlLk6GJQsqaUBKTNV-1">
          <mxGeometry x="540" y="20" width="120" height="60" as="geometry" />
        </mxCell>
        <mxCell id="J1MwOUdzkvqNXm9cDx9r-11" value="线上自服务开票" style="whiteSpace=wrap;html=1;align=left;strokeWidth=2;pointerEvents=1;fillColor=#f8cecc;strokeColor=#b85450;" vertex="1" parent="WIyWlLk6GJQsqaUBKTNV-1">
          <mxGeometry x="540" y="120" width="120" height="60" as="geometry" />
        </mxCell>
        <mxCell id="J1MwOUdzkvqNXm9cDx9r-16" value="" style="edgeStyle=orthogonalEdgeStyle;rounded=0;orthogonalLoop=1;jettySize=auto;html=1;" edge="1" parent="WIyWlLk6GJQsqaUBKTNV-1" source="J1MwOUdzkvqNXm9cDx9r-13" target="J1MwOUdzkvqNXm9cDx9r-15">
          <mxGeometry relative="1" as="geometry" />
        </mxCell>
        <mxCell id="J1MwOUdzkvqNXm9cDx9r-13" value="对公打款信息" style="whiteSpace=wrap;html=1;align=left;strokeWidth=2;pointerEvents=1;fillColor=#fff2cc;strokeColor=#d6b656;" vertex="1" parent="WIyWlLk6GJQsqaUBKTNV-1">
          <mxGeometry x="370" y="270" width="120" height="60" as="geometry" />
        </mxCell>
        <mxCell id="J1MwOUdzkvqNXm9cDx9r-19" value="" style="edgeStyle=orthogonalEdgeStyle;rounded=0;orthogonalLoop=1;jettySize=auto;html=1;" edge="1" parent="WIyWlLk6GJQsqaUBKTNV-1" source="J1MwOUdzkvqNXm9cDx9r-15">
          <mxGeometry relative="1" as="geometry">
            <mxPoint x="707" y="300" as="targetPoint" />
          </mxGeometry>
        </mxCell>
        <mxCell id="J1MwOUdzkvqNXm9cDx9r-15" value="银行打款" style="whiteSpace=wrap;html=1;align=left;strokeWidth=2;pointerEvents=1;fillColor=#fff2cc;strokeColor=#d6b656;" vertex="1" parent="WIyWlLk6GJQsqaUBKTNV-1">
          <mxGeometry x="540" y="270" width="120" height="60" as="geometry" />
        </mxCell>
        <mxCell id="J1MwOUdzkvqNXm9cDx9r-23" value="" style="edgeStyle=orthogonalEdgeStyle;rounded=0;orthogonalLoop=1;jettySize=auto;html=1;" edge="1" parent="WIyWlLk6GJQsqaUBKTNV-1" source="J1MwOUdzkvqNXm9cDx9r-20" target="J1MwOUdzkvqNXm9cDx9r-22">
          <mxGeometry relative="1" as="geometry" />
        </mxCell>
        <mxCell id="J1MwOUdzkvqNXm9cDx9r-20" value="资金自动认领并使用" style="whiteSpace=wrap;html=1;align=left;strokeWidth=2;pointerEvents=1;" vertex="1" parent="WIyWlLk6GJQsqaUBKTNV-1">
          <mxGeometry x="707" y="270" width="120" height="60" as="geometry" />
        </mxCell>
        <mxCell id="J1MwOUdzkvqNXm9cDx9r-27" value="" style="edgeStyle=orthogonalEdgeStyle;rounded=0;orthogonalLoop=1;jettySize=auto;html=1;" edge="1" parent="WIyWlLk6GJQsqaUBKTNV-1" source="J1MwOUdzkvqNXm9cDx9r-22" target="J1MwOUdzkvqNXm9cDx9r-26">
          <mxGeometry relative="1" as="geometry" />
        </mxCell>
        <mxCell id="J1MwOUdzkvqNXm9cDx9r-22" value="系统自动缴费" style="whiteSpace=wrap;html=1;align=left;strokeWidth=2;pointerEvents=1;" vertex="1" parent="WIyWlLk6GJQsqaUBKTNV-1">
          <mxGeometry x="880" y="270" width="120" height="60" as="geometry" />
        </mxCell>
        <mxCell id="J1MwOUdzkvqNXm9cDx9r-24" value="线上支付" style="whiteSpace=wrap;html=1;align=left;strokeWidth=2;pointerEvents=1;fillColor=#f8cecc;strokeColor=#b85450;" vertex="1" parent="WIyWlLk6GJQsqaUBKTNV-1">
          <mxGeometry x="740" y="20" width="120" height="60" as="geometry" />
        </mxCell>
        <mxCell id="J1MwOUdzkvqNXm9cDx9r-30" value="" style="edgeStyle=orthogonalEdgeStyle;rounded=0;orthogonalLoop=1;jettySize=auto;html=1;" edge="1" parent="WIyWlLk6GJQsqaUBKTNV-1" source="J1MwOUdzkvqNXm9cDx9r-26" target="J1MwOUdzkvqNXm9cDx9r-29">
          <mxGeometry relative="1" as="geometry" />
        </mxCell>
        <mxCell id="J1MwOUdzkvqNXm9cDx9r-26" value="系统自动销账&lt;br&gt;按账期、按欠票" style="whiteSpace=wrap;html=1;align=left;strokeWidth=2;pointerEvents=1;" vertex="1" parent="WIyWlLk6GJQsqaUBKTNV-1">
          <mxGeometry x="1040" y="270" width="120" height="60" as="geometry" />
        </mxCell>
        <mxCell id="J1MwOUdzkvqNXm9cDx9r-28" style="edgeStyle=orthogonalEdgeStyle;rounded=0;orthogonalLoop=1;jettySize=auto;html=1;entryX=0.308;entryY=0;entryDx=0;entryDy=0;entryPerimeter=0;" edge="1" parent="WIyWlLk6GJQsqaUBKTNV-1" source="J1MwOUdzkvqNXm9cDx9r-24" target="J1MwOUdzkvqNXm9cDx9r-22">
          <mxGeometry relative="1" as="geometry" />
        </mxCell>
        <mxCell id="J1MwOUdzkvqNXm9cDx9r-29" value="核销欠票" style="whiteSpace=wrap;html=1;align=left;strokeWidth=2;pointerEvents=1;" vertex="1" parent="WIyWlLk6GJQsqaUBKTNV-1">
          <mxGeometry x="1040" y="140" width="120" height="60" as="geometry" />
        </mxCell>
      </root>
    </mxGraphModel>
  </diagram>
</mxfile>
